<?xml version="1.0" encoding="UTF-8" standalone="no"?>
<svg
        viewBox="0 0 253.87292 56.617901"
        fill="none"
        version="1.1"
        id="svg16">
    <path
            d="m 26.3137,19.1251 c 0.728,-0.8915 2.407,-1.678 3.639,-1.678 h 6.438 c 1.232,0 2.24,0.9438 2.24,2.0975 v 34.6093 c 0,1.153 -1.008,2.097 -2.24,2.097 h -5.038 c -1.232,0 -2.24,-0.944 -2.24,-2.097 V 32.654 c 0,-1.1536 -0.616,-1.3633 -1.344,-0.4194 l -7.0538,8.4949 c -0.7278,0.8914 -2.0155,0.8914 -2.7433,0 L 10.9173,32.2346 C 10.1335,31.3431 9.5176,31.5004 9.5176,32.654 v 21.4999 c 0,1.153 -1.0077,2.097 -2.2394,2.097 H 2.2394 C 1.0077,56.2509 0,55.3069 0,54.1539 V 19.5446 c 0,-1.1537 1.0077,-2.0975 2.2394,-2.0975 h 6.3265 c 1.2317,0 2.8553,0.7341 3.6391,1.6255 l 5.7106,6.817 c 0.7838,0.8914 2.0155,0.8914 2.7433,0 z"
            fill="#04294f"
            id="path2"/>
    <path
            d="m 86.3867,36.9014 c 0,10.8545 -9.35,19.7165 -20.827,19.7165 -11.421,0 -20.771,-8.809 -20.771,-19.7165 0,-10.8022 9.35,-19.6118 20.771,-19.6118 11.533,0 20.827,8.8096 20.827,19.6118 z m -9.965,0 c 0,-5.9255 -4.815,-10.7497 -10.806,-10.7497 -5.934,0 -10.749,4.8242 -10.749,10.7497 0,5.9779 4.815,10.8025 10.749,10.8025 5.935,0 10.806,-4.8246 10.806,-10.8025 z"
            fill="#04294f"
            id="path4"/>
    <path
            d="m 87.3387,20.0689 c 0,-1.1536 1.008,-2.0975 2.239,-2.0975 h 27.993 c 1.232,0 2.24,0.9439 2.24,2.0975 v 4.7194 c 0,1.1536 -1.008,2.0975 -2.24,2.0975 h -7.278 c -1.231,0 -2.239,0.9439 -2.239,2.0975 v 25.1706 c 0,1.153 -1.008,2.097 -2.24,2.097 h -5.038 c -1.232,0 -2.24,-0.944 -2.24,-2.097 V 28.9833 c 0,-1.1536 -1.008,-2.0975 -2.239,-2.0975 h -6.719 c -1.231,0 -2.239,-0.9439 -2.239,-2.0975 z"
            fill="#04294f"
            id="path6"/>
    <path
            d="m 162.1367,36.9014 c 0,10.8545 -9.35,19.7165 -20.827,19.7165 -11.422,0 -20.771,-8.809 -20.771,-19.7165 0,-10.8022 9.349,-19.6118 20.771,-19.6118 11.477,0 20.827,8.8096 20.827,19.6118 z m -10.022,0 c 0,-5.9255 -4.815,-10.7497 -10.805,-10.7497 -5.935,0 -10.75,4.8242 -10.75,10.7497 0,5.9779 4.815,10.8025 10.75,10.8025 5.99,0 10.805,-4.8246 10.805,-10.8025 z"
            fill="#ffb400"
            id="path8"/>
    <path
            d="m 193.6007,19.125 c 0.728,-0.8915 2.407,-1.678 3.639,-1.678 h 6.55 c 1.232,0 2.24,0.9438 2.24,2.0975 v 34.6094 c 0,1.153 -1.008,2.097 -2.24,2.097 h -5.038 c -1.232,0 -2.24,-0.944 -2.24,-2.097 V 32.654 c 0,-1.1537 -0.616,-1.3634 -1.399,-0.472 l -7.279,8.5474 c -0.783,0.8914 -2.015,0.8914 -2.799,0 l -7.334,-8.5474 c -0.784,-0.8914 -1.4,-0.6817 -1.4,0.472 v 21.4999 c 0,1.153 -1.008,2.097 -2.239,2.097 h -5.039 c -1.232,0 -2.24,-0.944 -2.24,-2.097 V 19.5445 c 0,-1.1537 1.008,-2.0975 2.24,-2.0975 h 6.774 c 1.232,0 2.856,0.7341 3.639,1.6255 l 5.711,6.817 c 0.784,0.8914 2.015,0.8914 2.743,0 z"
            fill="#04294f"
            id="path10"/>
    <path
            d="m 253.6737,36.9014 c 0,10.8545 -9.35,19.7165 -20.827,19.7165 -11.421,0 -20.771,-8.809 -20.771,-19.7165 0,-10.8022 9.35,-19.6118 20.771,-19.6118 11.477,0 20.827,8.8096 20.827,19.6118 z m -9.965,0 c 0,-5.9255 -4.815,-10.7497 -10.806,-10.7497 -5.934,0 -10.749,4.8242 -10.749,10.7497 0,5.9779 4.815,10.8025 10.749,10.8025 5.935,0 10.806,-4.8246 10.806,-10.8025 z"
            fill="#ffb400"
            id="path12"/>
    <path
            d="m 249.7547,12 h -124.895 c -4.146,0 -5.491,-2.9589 -2.689,-6.411 V 5.6438 C 124.4117,2.411 128.9507,0 132.5927,0 h 109.374 c 3.642,0 8.516,2.4658 10.758,5.6986 V 5.589 c 2.241,3.4521 1.176,6.411 -2.97,6.411 z"
            fill="#ffb400"
            id="path14"/>
</svg>
